<svg id="Layer_1" xmlns="http://www.w3.org/2000/svg" width="1000" height="1000" viewBox="-915 -139 1000 1000"><style>.st0{fill:#41D6C3;} .st1{fill:#005448;} .st2{fill:#FFFFFF;}</style><circle class="st0" cx="-415" cy="361" r="500"/><path class="st1" d="M-269 60.6h193.2v582.7H-269V60.6z"/><path class="st2" d="M-172.8 131l-62.7 98.2h126.6l-63.9-98.2zm-.6 34.3l29.7 45.2h-57.5l27.8-45.2zM-172.8 300.9c-28.4 0-51.7 23.3-51.7 51.7s23.3 51.7 51.7 51.7c27.8 0 51-23.3 51.7-51.7 0-28.4-23.2-51.7-51.7-51.7zm0 84.6c-18.7 0-32.9-14.2-32.9-32.9s15.5-32.9 32.9-32.9c18.7 0 32.9 14.2 32.9 32.9.1 18.7-14.1 32.9-32.9 32.9zM-127.5 490.8l-13-13.5-32.3 32.3-32.3-33-12.9 13.6 32.3 32.3-33.6 33.6 13.6 12.9 32.9-32.9 33 32.3 13.6-13-33-32.9z"/><path class="st1" d="M-803.2 209.2h331.4v287.5h-331.4V209.2z"/><path class="st2" d="M-814.2 206.6v346.9h346.9V206.6h-346.9zm20.6 20h304.9v253.2h-304.9V226.6z"/><path class="st2" d="M-467.3 553.5h-346.9V206.6h346.9v346.9zm-326.3-73.6h306.2V226.6h-306.2v253.3z"/><path class="st2" d="M-422.1 498.6h-16.8V175h-315.9v-18.7h332.7v342.3z"/><path class="st2" d="M-376.9 456.6h-16.8V131h-315.9v-16.8h332.7v342.4zM-599.8 395.2l-102.1-102.7-73 73v89.1h263.6v-59.4l-43.3-43.9-45.2 43.9z"/><g><circle class="st2" cx="-540.3" cy="278.3" r="29.7"/></g><g><path class="st1" d="M-337.5 337.7h82.7v29.7h-82.7v-29.7z"/></g></svg>